<svg xmlns="http://www.w3.org/2000/svg" viewBox="0 0 512 512">
  <!-- Fundo arredondado verde escuro -->
  <rect width="512" height="512" rx="100" fill="#14532d"/>

  <!-- Chama principal -->
  <path d="M256 80
           C256 80 200 156 196 220
           C192 265 210 294 230 312
           C224 288 228 264 244 248
           C244 248 240 300 268 325
           C282 337 298 341 298 341
           C316 321 328 293 328 261
           C328 213 296 168 256 80Z"
        fill="#86efac"/>

  <!-- Chama interna clara -->
  <path d="M256 188
           C256 188 232 220 232 248
           C232 272 242 288 256 300
           C270 288 280 272 280 248
           C280 220 256 188 256 188Z"
        fill="white" opacity="0.9"/>

  <!-- Prancheta / clipboard -->
  <rect x="148" y="346" width="216" height="150" rx="16" fill="white" opacity="0.12"/>
  <rect x="148" y="346" width="216" height="150" rx="16" fill="none" stroke="white" stroke-width="8" opacity="0.5"/>

  <!-- Linhas do relatório -->
  <rect x="176" y="380" width="100" height="10" rx="5" fill="white" opacity="0.7"/>
  <rect x="176" y="404" width="140" height="10" rx="5" fill="white" opacity="0.5"/>
  <rect x="176" y="428" width="120" height="10" rx="5" fill="white" opacity="0.5"/>
  <rect x="176" y="452" width="80" height="10" rx="5" fill="white" opacity="0.4"/>

  <!-- Check mark verde -->
  <circle cx="328" cy="384" r="22" fill="#4ade80"/>
  <path d="M318 384 L326 392 L340 376" stroke="white" stroke-width="5" stroke-linecap="round" stroke-linejoin="round" fill="none"/>

  <!-- Escudo de segurança -->
  <path d="M256 56 L224 72 L224 104 C224 124 238 142 256 150 C274 142 288 124 288 104 L288 72 Z"
        fill="none" stroke="#86efac" stroke-width="6" opacity="0.6"/>
</svg>
